# xmcd
#
# Track frame offsets:
#	150
#	13642
#	32085
#	45475
#	62805
#	76860
#	88102
#	102562
#	116792
#	129897
#	145827
#
# Disc length: 2108 seconds
#
# Revision: 1
# Processed by: cddbd v1.5.2PL0 Copyright (c) Steve Scherf et al.
# Submitted via: audiograbber 1.83.01
#
DISCID=8c083a0b
DTITLE=Wild Bunch - Sunbeam
DYEAR=1994
DGENRE=Country
TTITLE0=Are you sure
TTITLE1=Never a guilded cage
TTITLE2=Remember you
TTITLE3=Tell me why
TTITLE4=Help in someway
TTITLE5=Sunbeam
TTITLE6=Like two clouds
TTITLE7=She's a boy
TTITLE8=She deserves you
TTITLE9=Dying heart
TTITLE10=Seven bridges road
EXTD=
EXTT0=
EXTT1=
EXTT2=
EXTT3=
EXTT4=
EXTT5=
EXTT6=
EXTT7=
EXTT8=
EXTT9=
EXTT10=
PLAYORDER=
